<?xml version="1.0" encoding="iso-8859-1"?>
<!-- Generator: Adobe Illustrator 19.1.0, SVG Export Plug-In . SVG Version: 6.00 Build 0)  -->
<svg xmlns="http://www.w3.org/2000/svg" xmlns:xlink="http://www.w3.org/1999/xlink" version="1.1" id="Capa_1" x="0px" y="0px" viewBox="0 0 487.194 487.194" style="enable-background:new 0 0 487.194 487.194;" xml:space="preserve" width="512px" height="512px">
<g>
	<g>
		<path d="M264.911,0c-28.5,0-55.4,6.4-79.5,17.8c-63.6,29.5-107.6,93.8-107.6,168.5l0,0v24.9v6l-37.9,72.4    c-9.6,18.3-0.5,33.2,20.1,33.2h17.8v0.4v31.5v36.9c0,21.5,17.6,39.1,39.1,39.1l53.7-8l0.1,53.7v0.4l0,0    c0.3,6.9,6.1,11.4,13.3,10.2l193.5-34.2c7.3-1.3,13.3-8.4,13.3-15.8v-8.5v-6.9v-98.4c37.1-34,60.3-82.9,60.3-137.1    C451.011,83.3,367.711,0,264.911,0z M359.911,282.6c-44.7,44.7-112.9,51.8-165,21.1l-0.3-0.2c-20.5,15.5-42.5,18.2-57.8,15.8    c-5.1-0.8-6.2-7.7-1.5-10c14-6.9,22.9-20.6,28-31.7l-1.4-1.1c-47.3-53.4-45.4-135.1,5.7-186.2c53.1-53.1,139.2-53.1,192.3,0    C413.011,143.3,413.011,229.5,359.911,282.6z" fill="#848687"/>
		<path d="M263.511,77.6c-60.1,0-109,48.9-109,109s48.9,109,109,109s109-48.9,109-109S323.611,77.6,263.511,77.6z M231.311,112    c-6.6,9.2-13,20.9-17.4,35.2h-21.4C201.111,131.6,214.811,119.1,231.311,112z M185.611,209.6c-2.2-7.3-3.3-15-3.3-23    s1.2-15.7,3.3-23h24.5c-1.2,7.2-1.9,14.8-1.9,23s0.7,15.9,1.9,23H185.611z M192.511,226h21.4c4.4,14.3,10.8,26,17.4,35.2    C214.811,254.1,201.111,241.6,192.511,226z M255.311,264.3c-7.9-8-17.7-20.6-24.2-38.3h24.2V264.3z M255.311,209.6h-28.7    c-1.4-7.1-2.2-14.7-2.2-23s0.8-16,2.2-23h28.7V209.6z M255.311,147.2h-24.2c6.4-17.9,16.3-30.5,24.2-38.5V147.2z M334.511,147.2    h-21.4c-4.4-14.3-10.8-26-17.4-35.2C312.211,119.1,325.911,131.6,334.511,147.2z M271.711,108.9c7.9,8,17.7,20.6,24.2,38.3h-24.2    V108.9z M271.711,163.6h28.7c1.4,7.1,2.2,14.7,2.2,23s-0.8,16-2.2,23h-28.7V163.6z M271.711,226h24.2    c-6.4,17.9-16.3,30.5-24.2,38.5V226z M295.711,261.2c6.6-9.2,13-20.9,17.4-35.2h21.4C325.911,241.6,312.211,254.1,295.711,261.2z     M316.911,209.6c1.2-7.2,1.9-14.8,1.9-23s-0.7-15.9-1.9-23h24.5c2.2,7.3,3.3,15,3.3,23s-1.2,15.7-3.3,23H316.911z" fill="#848687"/>
	</g>
</g>
<g>
</g>
<g>
</g>
<g>
</g>
<g>
</g>
<g>
</g>
<g>
</g>
<g>
</g>
<g>
</g>
<g>
</g>
<g>
</g>
<g>
</g>
<g>
</g>
<g>
</g>
<g>
</g>
<g>
</g>
</svg>
